<svg id="ico-order-by" xmlns="http://www.w3.org/2000/svg" width="11.283" height="15.528" viewBox="0 0 11.283 15.528">
  <path id="패스_76" data-name="패스 76" d="M12.984,14.676a.971.971,0,0,0,1.793.515l2.609-2.608a.971.971,0,1,0-1.373-1.372L14.925,12.3V4.971a.971.971,0,0,0-1.941,0v9.657q0,.013,0,.026Z" transform="translate(-6.388 -4)"/>
  <path id="패스_77" data-name="패스 77" d="M10.874,8.971A.971.971,0,0,0,9.08,8.456L6.472,11.064a.971.971,0,1,0,1.373,1.372l1.088-1.088v7.327a.971.971,0,0,0,1.941,0V9.018q0-.013,0-.027Z" transform="translate(-6.188 -4.118)"/>
</svg>
