<svg id="ico-stock-news" xmlns="http://www.w3.org/2000/svg" width="13.698" height="12.392" viewBox="0 0 13.698 12.392">
  <path id="패스_5036" data-name="패스 5036" d="M0,168.576H13.7V159.4H0Zm10.156-7.841h1.417v1.417H10.156Zm0,2.409h1.417v1.417H10.156Zm0,2.409h1.417v1.417H10.156Zm-2.677-4.818H8.9v1.417H7.479Zm0,2.409H8.9v1.417H7.479Zm0,2.409H8.9v1.417H7.479ZM4.8,160.734H6.219v1.417H4.8Zm0,2.409H6.219v1.417H4.8Zm0,2.409H6.219v1.417H4.8Zm-2.677-4.818H3.542v1.417H2.125Zm0,2.409H3.542v1.417H2.125Zm1.417,2.409v1.417H2.125v-1.417Z" transform="translate(0 -156.184)" fill="#f66b00"/>
  <path id="패스_5037" data-name="패스 5037" d="M13.7,39.391H11.289V41h-.8V39.391H3.212V41h-.8V39.391H0V41.8H13.7Z" transform="translate(0 -39.391)" fill="#f66b00"/>
</svg>
