<svg id="ico-small-money" xmlns="http://www.w3.org/2000/svg" xmlns:xlink="http://www.w3.org/1999/xlink" width="24.826" height="24.826" viewBox="0 0 24.826 24.826">
  <defs>
    <clipPath id="clip-path">
      <path id="money" d="M10,20A10,10,0,1,1,20,10,10.011,10.011,0,0,1,10,20ZM6.529,12.67a.865.865,0,0,0-.72.388.81.81,0,0,0-.079.772,3.923,3.923,0,0,0,3.01,2.24v.6A1.331,1.331,0,0,0,10.07,18h.01a1.331,1.331,0,0,0,1.33-1.33v-.58c1.972-.374,3.113-1.525,3.13-3.16,0-2.5-2.113-3.377-4.179-3.909C8.439,8.526,7.69,7.99,7.69,7.11c0-1,.942-1.64,2.4-1.64,1.156,0,1.869.421,2.119,1.25a.811.811,0,0,0,.771.62h.26a.864.864,0,0,0,.708-.368.822.822,0,0,0,.1-.762,3.571,3.571,0,0,0-2.63-2.26V3.33A1.331,1.331,0,0,0,10.09,2h-.01A1.331,1.331,0,0,0,8.75,3.33v.6C7.246,4.253,5.64,5.266,5.64,7.14c0,1.814,1.328,2.98,4.18,3.67,2.352.559,2.67,1.4,2.67,2.14,0,.768-.63,1.59-2.4,1.59-1.32,0-2.188-.439-2.51-1.269a.887.887,0,0,0-.81-.6Z" transform="translate(-0.483 0.343)" fill="#fff"/>
    </clipPath>
  </defs>
  <g id="ic">
    <path id="Path" d="M0,0H24.826V24.826H0Z" fill="none"/>
    <path id="money-2" data-name="money" d="M10,20A10,10,0,1,1,20,10,10.011,10.011,0,0,1,10,20ZM6.529,12.67a.865.865,0,0,0-.72.388.81.81,0,0,0-.079.772,3.923,3.923,0,0,0,3.01,2.24v.6A1.331,1.331,0,0,0,10.07,18h.01a1.331,1.331,0,0,0,1.33-1.33v-.58c1.972-.374,3.113-1.525,3.13-3.16,0-2.5-2.113-3.377-4.179-3.909C8.439,8.526,7.69,7.99,7.69,7.11c0-1,.942-1.64,2.4-1.64,1.156,0,1.869.421,2.119,1.25a.811.811,0,0,0,.771.62h.26a.864.864,0,0,0,.708-.368.822.822,0,0,0,.1-.762,3.571,3.571,0,0,0-2.63-2.26V3.33A1.331,1.331,0,0,0,10.09,2h-.01A1.331,1.331,0,0,0,8.75,3.33v.6C7.246,4.253,5.64,5.266,5.64,7.14c0,1.814,1.328,2.98,4.18,3.67,2.352.559,2.67,1.4,2.67,2.14,0,.768-.63,1.59-2.4,1.59-1.32,0-2.188-.439-2.51-1.269a.887.887,0,0,0-.81-.6Z" transform="translate(2 2.826)"/>
    <g id="ic-2" data-name="ic" transform="translate(2.483 2.483)" clip-path="url(#clip-path)">
      <rect id="color" width="25" height="25" transform="translate(-2.483 -2.657)" fill="#fff"/>
    </g>
  </g>
</svg>
