<svg id="ico-bullet-arrow" xmlns="http://www.w3.org/2000/svg" width="18" height="18" viewBox="0 0 18 18">
  <path id="패스_989" data-name="패스 989" d="M15.727,2.636H4.273A1.636,1.636,0,0,0,2.636,4.273V15.727a1.636,1.636,0,0,0,1.636,1.636H15.727a1.636,1.636,0,0,0,1.636-1.636V4.273A1.636,1.636,0,0,0,15.727,2.636ZM4.273,1A3.273,3.273,0,0,0,1,4.273V15.727A3.273,3.273,0,0,0,4.273,19H15.727A3.273,3.273,0,0,0,19,15.727V4.273A3.273,3.273,0,0,0,15.727,1Z" transform="translate(-1 -1)" fill-rule="evenodd"/>
  <path id="패스_990" data-name="패스 990" d="M16,12l-6,4.33V7.67Z" transform="translate(-3.25 -3)"/>
</svg>
