<svg id="구성_요소_949_1" data-name="구성 요소 949 – 1" xmlns="http://www.w3.org/2000/svg" width="13.698" height="11.705" viewBox="0 0 13.698 11.705">
  <path id="패스_5038" data-name="패스 5038" d="M125.281,9.669l3.594,2V3.192l-3.594-2Zm0,0" transform="translate(-121.235 -1.159)" fill="#f66b00"/>
  <path id="패스_5039" data-name="패스 5039" d="M252.215,22.5a2.265,2.265,0,0,1,.654-1.448,2.117,2.117,0,0,1,1.284-.615V13.988l-3.594,1.6v8.5l1.758-.781A2.126,2.126,0,0,1,252.215,22.5Zm0,0" transform="translate(-242.466 -13.539)" fill="#f66b00"/>
  <path id="패스_5040" data-name="패스 5040" d="M0,10.164l3.594-1.6V.07L0,1.668Zm0,0" transform="translate(0 -0.07)" fill="#f66b00"/>
  <path id="패스_5041" data-name="패스 5041" d="M346.472,253.25a.776.776,0,1,0-.775.8A.788.788,0,0,0,346.472,253.25Zm0,0" transform="translate(-333.782 -244.299)" fill="#f66b00"/>
  <path id="패스_5042" data-name="패스 5042" d="M317.264,227.012a1.877,1.877,0,0,0-.542-1.2,1.748,1.748,0,0,0-2.476,0,1.878,1.878,0,0,0-.542,1.2,1.756,1.756,0,0,0,.107.723,1.911,1.911,0,0,0,.411.65l1.262,1.344,1.262-1.344a1.91,1.91,0,0,0,.411-.65A1.754,1.754,0,0,0,317.264,227.012Zm-1.78,1.152a1.189,1.189,0,1,1,1.163-1.189A1.177,1.177,0,0,1,315.484,228.164Zm0,0" transform="translate(-303.569 -218.023)" fill="#f66b00"/>
</svg>
