<svg xmlns="http://www.w3.org/2000/svg" width="16" height="9.846" viewBox="0 0 16 9.846">
  <g id="ico-password-view" transform="translate(-1173 -481)">
    <g id="eye" transform="translate(1173 481)">
      <path id="패스_522" data-name="패스 522" d="M17.846,12.923A4.923,4.923,0,1,1,12.923,8,4.923,4.923,0,0,1,17.846,12.923Zm-2.462,0a2.462,2.462,0,1,1-2.462-2.462A2.461,2.461,0,0,1,15.385,12.923Z" transform="translate(-4.923 -8)" fill="#8e8e8e" fill-rule="evenodd"/>
      <path id="패스_523" data-name="패스 523" d="M8.378,3c3.849,0,7.083,2.092,8,4.923-.917,2.831-4.151,4.923-8,4.923S1.3,10.754.378,7.923C1.3,5.092,4.529,3,8.378,3Zm0,8.752c-3.081,0-5.692-1.609-6.569-3.829C2.686,5.7,5.3,4.094,8.378,4.094S14.07,5.7,14.947,7.923C14.07,10.143,11.459,11.752,8.378,11.752Z" transform="translate(-0.378 -3)" fill="#8e8e8e" fill-rule="evenodd"/>
    </g>
  </g>
</svg>
