<svg id="ico-trash" xmlns="http://www.w3.org/2000/svg" width="22" height="24" viewBox="0 0 22 24">
  <path id="패스_1347" data-name="패스 1347" d="M20.111,5.789V4.526A2.486,2.486,0,0,0,17.667,2H10.333A2.486,2.486,0,0,0,7.889,4.526V5.789H4.222a1.264,1.264,0,0,0,0,2.526H5.444V22.211A3.73,3.73,0,0,0,9.111,26h9.778a3.73,3.73,0,0,0,3.667-3.789V8.316h1.222a1.264,1.264,0,0,0,0-2.526ZM17.667,4.526H10.333V5.789h7.333Zm2.444,3.789H7.889V22.211a1.243,1.243,0,0,0,1.222,1.263h9.778a1.243,1.243,0,0,0,1.222-1.263Z" transform="translate(-3 -2)" fill-rule="evenodd"/>
  <path id="패스_1348" data-name="패스 1348" d="M9,9h2v8H9Z" transform="translate(-1.5 1.182)"/>
  <path id="패스_1349" data-name="패스 1349" d="M13,9h2v8H13Z" transform="translate(-0.5 1.182)"/>
</svg>
