<svg id="Layer_1" data-name="Layer 1" xmlns="http://www.w3.org/2000/svg" viewBox="0 0 130 129"><defs><style>.cls-1{fill:#fff100;}.cls-2{fill:#391f1f;}</style></defs><rect className="cls-1" width="130" height="129"/><path className="cls-2" d="M65,15.67c-29.21,0-52.88,18.69-52.88,41.76,0,14.84,9.81,27.84,24.54,35.26l-5,18.61a1.52,1.52,0,0,0,1.45,2,1.54,1.54,0,0,0,.94-.36L55.47,98.51A67.83,67.83,0,0,0,65,99.2c29.2,0,52.9-18.68,52.9-41.77S94.19,15.67,65,15.67Z"/><path className="cls-1" d="M30.67,50.81H24.91a3.84,3.84,0,0,1-2.05-.54,2.28,2.28,0,0,1-1.05-1.55c0-.18-.06-.38-.08-.59a2.31,2.31,0,0,1,.9-2,3.57,3.57,0,0,1,2.26-.72H42.5a3.74,3.74,0,0,1,2,.54,2.37,2.37,0,0,1,1.07,1.56,2.69,2.69,0,0,1,0,.57,2.36,2.36,0,0,1-.88,2,3.54,3.54,0,0,1-2.25.7H36.76l0,19.83a3.14,3.14,0,0,1-.84,2.3,2.9,2.9,0,0,1-2.22.87,3,3,0,0,1-1.95-.64,2.72,2.72,0,0,1-1-1.71,3.69,3.69,0,0,1-.06-.82Z"/><path className="cls-1" d="M47.11,46.91a2.7,2.7,0,0,1,1.11-1.49A3.52,3.52,0,0,1,50.09,45h1.46a3.87,3.87,0,0,1,2,.48A3.21,3.21,0,0,1,54.8,47.3l7.35,21.3a11.32,11.32,0,0,1,.49,1.7,4.32,4.32,0,0,1,.11.73,2.69,2.69,0,0,1-.85,2,2.74,2.74,0,0,1-2,.81,2.6,2.6,0,0,1-2.73-1.74l-1.58-4.63h-9.8l-1.57,4.63a2.58,2.58,0,0,1-2.75,1.74,2.83,2.83,0,0,1-1.79-.56,2.58,2.58,0,0,1-.94-1.57,4.19,4.19,0,0,1-.05-.65,4.07,4.07,0,0,1,.17-1.13c.12-.43.26-.87.42-1.3Zm3.68,4.94h-.07L47.14,63h7.12Z"/><path className="cls-1" d="M63.71,48.13a3.16,3.16,0,0,1,.83-2.29A2.91,2.91,0,0,1,66.77,45a3.06,3.06,0,0,1,2,.63,2.87,2.87,0,0,1,1,1.74,2.59,2.59,0,0,1,.07.79V68H80a3.51,3.51,0,0,1,2.05.55,2.35,2.35,0,0,1,1,1.54,3.53,3.53,0,0,1,.08.58,2.33,2.33,0,0,1-.9,2,3.58,3.58,0,0,1-2.26.7H67.27A4.07,4.07,0,0,1,65,72.73a2.81,2.81,0,0,1-1.15-1.89,8.51,8.51,0,0,1-.14-1.24Z"/><path className="cls-1" d="M83.75,48.13a3.21,3.21,0,0,1,.83-2.29A2.94,2.94,0,0,1,86.81,45a3,3,0,0,1,1.94.63,2.91,2.91,0,0,1,1,1.74,3,3,0,0,1,.06.79l0,9.22,9.55-11a8.09,8.09,0,0,1,1.16-1.06,2.39,2.39,0,0,1,1.28-.33,3.17,3.17,0,0,1,1.83.57,2.31,2.31,0,0,1,1,1.48s0,.11,0,.24a1.06,1.06,0,0,0,0,.26,2.48,2.48,0,0,1-.29,1.15,5.72,5.72,0,0,1-.73,1l-6.25,6.83,7.41,11.72.22.36a6.82,6.82,0,0,1,.87,1.77.71.71,0,0,0,0,.18v.21a2.79,2.79,0,0,1-.92,2.34,3.56,3.56,0,0,1-2.21.71,3.06,3.06,0,0,1-1.52-.33,3.73,3.73,0,0,1-1.19-1.34l-7-11.28-3.33,3.48,0,6.3a3.31,3.31,0,0,1-.84,2.3,2.94,2.94,0,0,1-2.24.87,3.09,3.09,0,0,1-2-.64,2.81,2.81,0,0,1-1-1.71,3.69,3.69,0,0,1,0-.82Z"/></svg>