<svg xmlns="http://www.w3.org/2000/svg" viewBox="0 0 122 120"><defs><style>.cls-1{fill:#49b649;}</style></defs><g id="Layer_1" data-name="Layer 1"><path className="cls-1" d="M0,0V120H122V0ZM92.09,87.79c-7.19-.12-14.39.07-21.58-.12-3.85-6.3-8.37-12.17-12.37-18.38-2.39-3.24-4.53-6.66-6.88-9.94-.25,9.46,0,18.93-.12,28.39-7.14,0-14.3,0-21.44,0,0-19.08,0-38.15,0-57.23,7.15,0,14.32-.21,21.45.11,6.76,9.28,13,19,19.62,28.37.12-9.5,0-19,.06-28.53,7.11,0,14.22,0,21.34,0,.18,18.2,0,36.41.1,54.62C92.25,86,92.17,86.89,92.09,87.79Z"/></g></svg>